<?xml version="1.0" encoding="utf-8"?>
<!-- Generator: Adobe Illustrator 22.1.0, SVG Export Plug-In . SVG Version: 6.00 Build 0)  -->
<svg version="1.1" id="Layer_1" xmlns="http://www.w3.org/2000/svg" xmlns:xlink="http://www.w3.org/1999/xlink" x="0px" y="0px"
	 viewBox="0 0 264 89" style="enable-background:new 0 0 264 89;" xml:space="preserve">
<style type="text/css">
	.st0{fill:#541000;}
</style>
<g>
	<path class="st0" d="M68.6,49.6c-2.7-1.6-6.1-1.3-8.4,0.6l-9.7-5.6l9.7-5.6c2.4,1.8,5.7,2.1,8.4,0.6c3.6-2.1,4.9-6.8,2.8-10.4
		c-2.1-3.6-6.8-4.9-10.4-2.8c-2.7,1.6-4.1,4.6-3.7,7.6l-9.7,5.6V28.3c2.8-1.1,4.7-3.9,4.7-7c0-4.2-3.4-7.6-7.6-7.6
		c-4.2,0-7.6,3.4-7.6,7.6c0,3.2,1.9,5.9,4.7,7v11.2l-9.7-5.6c0.4-3-1-6-3.7-7.6c-3.6-2.1-8.3-0.9-10.4,2.8
		c-2.1,3.6-0.9,8.3,2.8,10.4c2.7,1.6,6.1,1.3,8.4-0.6l9.7,5.6l-9.7,5.6c-2.4-1.8-5.7-2.1-8.4-0.6c-3.6,2.1-4.9,6.8-2.8,10.4
		c2.1,3.6,6.8,4.9,10.4,2.8c2.8-1.6,4.1-4.6,3.7-7.6l9.7-5.6v11.2c-2.8,1.1-4.7,3.9-4.7,7c0,4.2,3.4,7.6,7.6,7.6
		c4.2,0,7.6-3.4,7.6-7.6c0-3.2-1.9-5.9-4.7-7V49.6l9.7,5.6c-0.4,3,1,6,3.7,7.6c3.6,2.1,8.3,0.9,10.4-2.8
		C73.5,56.3,72.3,51.7,68.6,49.6"/>
	<path class="st0" d="M102.3,28.9c0-0.1,0.1-0.1,0.2,0l6.4,6.2l6.3-6.2c0.1-0.1,0.2-0.1,0.2,0v12.7H112v-5.7l-3.1,3.1
		c-0.1,0.1-0.1,0.1-0.2,0l-3.1-3.1v5.7h-3.3V28.9z"/>
	<path class="st0" d="M117.4,36.8v-7.7h3.3v7.6c0,1.4,0.7,2.2,2.1,2.2c1.4,0,2.1-0.8,2.1-2.2v-7.6l3.3,0v7.7c0,3.4-2.3,5-5.4,5
		C119.7,41.8,117.4,40.1,117.4,36.8"/>
	<path class="st0" d="M129.3,39.5l2.4-1.8c0.6,0.8,1.4,1.4,2.6,1.4c1,0,1.6-0.3,1.6-1c0-0.5-0.4-0.8-1.2-1.1l-1.5-0.5
		c-1.8-0.6-3.1-1.7-3.1-3.8c0-2.5,2-3.7,4.3-3.7c2.2,0,3.4,0.8,4.2,1.7l-1.9,2c-0.5-0.5-1.1-0.9-2.1-0.9c-0.8,0-1.2,0.4-1.2,0.9
		c0,0.5,0.3,0.7,0.9,0.9l1.7,0.6c2.5,0.8,3.3,2,3.3,3.8c0,2.3-1.4,3.9-4.7,3.9C131.6,41.8,130,40.5,129.3,39.5"/>
	<polygon class="st0" points="140.7,29.1 149.5,29.1 149.5,31.9 144,31.9 144,34.8 148.6,34.8 148.6,37.5 144,37.5 144,38.8 
		149.7,38.8 149.7,41.6 140.7,41.6 	"/>
	<path class="st0" d="M160.5,35.4c0-2-1.2-3.5-3.3-3.5c-2.1,0-3.3,1.5-3.3,3.5c0,2,1.2,3.5,3.3,3.5S160.5,37.3,160.5,35.4
		 M150.5,35.4c0-3.8,3.1-6.4,6.7-6.4c3.6,0,6.7,2.6,6.7,6.4c0,3.8-3.1,6.4-6.7,6.4C153.7,41.8,150.5,39.1,150.5,35.4"/>
	<path class="st0" d="M173.1,35.4v6.2l-3.1,0V28.9c0-0.1,0.1-0.2,0.3,0l7.8,6.5v-6.3h3.1v12.7c0,0.1-0.1,0.2-0.3,0L173.1,35.4z"/>
	<path class="st0" d="M188.4,35.1l-1.2,2.9h2.5L188.4,35.1z M185.6,41.6h-3.3l6.1-12.7c0.1-0.1,0.2-0.1,0.2,0l6.1,12.7h-3.5
		l-0.5-1.1h-4.7L185.6,41.6z"/>
	<path class="st0" d="M200.6,41.8c-3.5,0-6.5-2.6-6.5-6.4c0-3.8,3-6.4,6.3-6.4c2.7,0,4.4,1.1,5.4,2.7l-2.5,1.7
		c-0.5-0.7-1.2-1.5-2.8-1.5c-1.8,0-3,1.5-3,3.5c0,2,1.2,3.5,3.1,3.5c1.6,0,2.4-0.7,2.9-1.7l2.6,1.7
		C204.8,40.9,203.1,41.8,200.6,41.8"/>
	<rect x="207.4" y="29.1" class="st0" width="3.3" height="12.5"/>
	<path class="st0" d="M222.4,35.4c0-2-1.2-3.5-3.3-3.5s-3.3,1.5-3.3,3.5c0,2,1.2,3.5,3.3,3.5S222.4,37.3,222.4,35.4 M212.4,35.4
		c0-3.8,3.1-6.4,6.7-6.4c3.6,0,6.7,2.6,6.7,6.4c0,3.8-3.1,6.4-6.7,6.4S212.4,39.1,212.4,35.4"/>
	<path class="st0" d="M230.5,35.4v6.2h-3.1V28.9c0-0.1,0.1-0.2,0.3,0l7.8,6.5v-6.3h3.1v12.7c0,0.1-0.1,0.2-0.3,0L230.5,35.4z"/>
	<path class="st0" d="M245.8,35.1l-1.2,2.9h2.5L245.8,35.1z M243,41.6l-3.3,0l6.1-12.7c0.1-0.1,0.2-0.1,0.2,0l6.1,12.7h-3.5
		l-0.5-1.1h-4.7L243,41.6z"/>
	<polygon class="st0" points="253.3,29.1 256.6,29.1 256.6,38.8 261.9,38.8 261.9,41.6 253.3,41.6 	"/>
	<path class="st0" d="M106.7,57.1c2,0,3.3-1.3,3.3-3.4c0-2.1-1.2-3.4-3.3-3.4h-1.1v6.8H106.7z M102.3,47.5h4.8
		c3.6,0,6.3,2.4,6.3,6.2c0,3.9-2.7,6.2-6.3,6.2h-4.8V47.5z"/>
	<polygon class="st0" points="114.9,47.5 123.7,47.5 123.7,50.3 118.3,50.3 118.3,53.2 122.8,53.2 122.8,55.9 118.3,55.9 
		118.3,57.2 123.9,57.2 123.9,60 114.9,60 	"/>
	<path class="st0" d="M135.9,60.1c-3.5,0-6.5-2.6-6.5-6.4s3-6.4,6.3-6.4c2.7,0,4.4,1.1,5.4,2.7l-2.5,1.7c-0.5-0.7-1.2-1.5-2.8-1.5
		c-1.8,0-3,1.5-3,3.5c0,2,1.2,3.5,3.1,3.5c1.6,0,2.4-0.7,2.9-1.7l2.6,1.7C140.2,59.2,138.4,60.1,135.9,60.1"/>
	<path class="st0" d="M151.8,53.7c0-2-1.2-3.5-3.3-3.5s-3.3,1.5-3.3,3.5c0,2,1.2,3.5,3.3,3.5C150.6,57.2,151.8,55.7,151.8,53.7
		 M141.8,53.7c0-3.8,3.1-6.4,6.7-6.4c3.6,0,6.7,2.6,6.7,6.4c0,3.8-3.1,6.4-6.7,6.4C144.9,60.1,141.8,57.5,141.8,53.7"/>
	<path class="st0" d="M155.4,57.8l2.4-1.8c0.6,0.8,1.4,1.4,2.6,1.4c1,0,1.6-0.3,1.6-1c0-0.5-0.4-0.8-1.2-1.1l-1.5-0.5
		c-1.8-0.6-3.1-1.7-3.1-3.8c0-2.5,2-3.7,4.3-3.7c2.2,0,3.4,0.8,4.2,1.7l-1.9,2c-0.5-0.5-1.1-0.9-2.1-0.9c-0.8,0-1.2,0.4-1.2,0.9
		c0,0.5,0.3,0.7,0.9,0.9l1.7,0.6c2.5,0.8,3.3,2,3.3,3.8c0,2.3-1.4,3.9-4.7,3.9C157.8,60.2,156.2,58.9,155.4,57.8"/>
	<polygon class="st0" points="169.1,50.3 165.8,50.3 165.8,47.5 175.7,47.5 175.7,50.3 172.4,50.3 172.4,60 169.1,60 	"/>
	<path class="st0" d="M180.4,53.5l-1.2,2.9h2.5L180.4,53.5z M177.6,60h-3.3l6.1-12.7c0.1-0.1,0.2-0.1,0.2,0l6.1,12.7h-3.5l-0.5-1.1
		h-4.7L177.6,60z"/>
	<path class="st0" d="M196.9,54.4c1.5,0,2.1-0.8,2.1-2.1c0-1.2-0.6-2.1-2.1-2.1h-1.2v4.1H196.9z M202.3,60h-3.6l-1.7-2.9l-1.3,0V60
		l-3.3,0V47.5h4.7c3.4,0,5.3,2.1,5.3,4.9c0,1.8-0.8,3.2-2.3,4L202.3,60z"/>
	<rect x="204" y="47.5" class="st0" width="3.3" height="12.5"/>
	<path class="st0" d="M215.4,60.1c-3.5,0-6.5-2.6-6.5-6.4s3-6.4,6.3-6.4c2.7,0,4.4,1.1,5.4,2.7l-2.5,1.7c-0.5-0.7-1.2-1.5-2.8-1.5
		c-1.8,0-3,1.5-3,3.5c0,2,1.2,3.5,3.1,3.5c1.6,0,2.4-0.7,2.9-1.7l2.6,1.7C219.7,59.2,218,60.1,215.4,60.1"/>
	<path class="st0" d="M227.1,53.5l-1.2,2.9h2.5L227.1,53.5z M224.3,60H221l6.1-12.7c0.1-0.1,0.2-0.1,0.2,0l6.1,12.7h-3.5l-0.5-1.1
		h-4.7L224.3,60z"/>
	<path class="st0" d="M44.7,7.9C24.5,7.9,8,24.3,8,44.5c0,20.2,16.4,36.6,36.6,36.6s36.6-16.4,36.6-36.6
		C81.3,24.3,64.8,7.9,44.7,7.9 M44.7,87c-5.7,0-11.3-1.1-16.5-3.3c-5.1-2.1-9.6-5.2-13.5-9.1c-3.9-3.9-7-8.4-9.1-13.5
		c-2.2-5.2-3.3-10.8-3.3-16.5c0-5.7,1.1-11.3,3.3-16.5c2.1-5.1,5.2-9.6,9.1-13.5c3.9-3.9,8.4-7,13.5-9.1C33.4,3.1,38.9,2,44.7,2
		C50.4,2,56,3.1,61.2,5.3c5.1,2.1,9.6,5.2,13.5,9.1c3.9,3.9,7,8.4,9.1,13.5c2.2,5.2,3.3,10.8,3.3,16.5c0,5.7-1.1,11.3-3.3,16.5
		c-2.1,5.1-5.2,9.6-9.1,13.5c-3.9,3.9-8.4,7-13.5,9.1C56,85.9,50.4,87,44.7,87"/>
</g>
</svg>
